<?xml version="1.0" encoding="UTF-8"?><svg xmlns="http://www.w3.org/2000/svg" xmlns:xlink="http://www.w3.org/1999/xlink" fill-opacity="1" color-rendering="auto" color-interpolation="auto" text-rendering="auto" stroke="black" stroke-linecap="square" width="1111" stroke-miterlimit="10" shape-rendering="auto" stroke-opacity="1" fill="black" stroke-dasharray="none" font-weight="normal" stroke-width="1" height="832" font-family="'Dialog'" font-style="normal" stroke-linejoin="miter" font-size="12px" stroke-dashoffset="0" image-rendering="auto">
  <!--Generated by ySVG 2.5-->
  <defs id="genericDefs"/>
  <g>
    <defs id="defs1">
      <clipPath clipPathUnits="userSpaceOnUse" id="clipPath1">
        <path d="M0 0 L1111 0 L1111 832 L0 832 L0 0 Z"/>
      </clipPath>
      <clipPath clipPathUnits="userSpaceOnUse" id="clipPath2">
        <path d="M-115 -812 L996 -812 L996 20 L-115 20 L-115 -812 Z"/>
      </clipPath>
      <clipPath clipPathUnits="userSpaceOnUse" id="clipPath3">
        <path d="M566.0645 -401.6494 L566.0645 709.3506 L-265.9355 709.3506 L-265.9355 -401.6494 L566.0645 -401.6494 Z"/>
      </clipPath>
      <clipPath clipPathUnits="userSpaceOnUse" id="clipPath4">
        <path d="M561.3945 -22.6494 L561.3945 1088.3506 L-270.6055 1088.3506 L-270.6055 -22.6494 L561.3945 -22.6494 Z"/>
      </clipPath>
      <clipPath clipPathUnits="userSpaceOnUse" id="clipPath5">
        <path d="M292.0938 -1068.9197 L292.0938 42.0804 L-539.9062 42.0804 L-539.9062 -1068.9197 L292.0938 -1068.9197 Z"/>
      </clipPath>
      <clipPath clipPathUnits="userSpaceOnUse" id="clipPath6">
        <path d="M376.5938 -1068.9197 L376.5938 42.0804 L-455.4062 42.0804 L-455.4062 -1068.9197 L376.5938 -1068.9197 Z"/>
      </clipPath>
      <clipPath clipPathUnits="userSpaceOnUse" id="clipPath7">
        <path d="M461.0938 -1068.9197 L461.0938 42.0804 L-370.9062 42.0804 L-370.9062 -1068.9197 L461.0938 -1068.9197 Z"/>
      </clipPath>
      <clipPath clipPathUnits="userSpaceOnUse" id="clipPath8">
        <path d="M547.2578 -1068.9197 L547.2578 42.0804 L-284.7422 42.0804 L-284.7422 -1068.9197 L547.2578 -1068.9197 Z"/>
      </clipPath>
      <clipPath clipPathUnits="userSpaceOnUse" id="clipPath9">
        <path d="M631.0898 -1068.9197 L631.0898 42.0804 L-200.9102 42.0804 L-200.9102 -1068.9197 L631.0898 -1068.9197 Z"/>
      </clipPath>
    </defs>
    <g fill="rgb(153,255,255)" text-rendering="geometricPrecision" shape-rendering="geometricPrecision" transform="matrix(1,0,0,1,115,812)" stroke="rgb(153,255,255)">
      <rect x="313" width="232" height="55" y="-51.5" clip-path="url(#clipPath2)" stroke="none"/>
    </g>
    <g text-rendering="geometricPrecision" stroke-miterlimit="1.45" stroke-width="2" shape-rendering="geometricPrecision" transform="matrix(1,0,0,1,115,812)" stroke-linecap="butt">
      <rect fill="none" x="313" width="232" height="55" y="-51.5" clip-path="url(#clipPath2)"/>
      <text x="341.5986" y="-33.9873" clip-path="url(#clipPath2)" font-family="sans-serif" stroke="none" stroke-width="1" xml:space="preserve">0x4000_0000 .. ld_dataOSEnd-1</text>
      <text x="346.6348" y="-19.2861" clip-path="url(#clipPath2)" font-family="sans-serif" stroke="none" stroke-width="1" xml:space="preserve">*.data.OS, *.bss.OS, OS stack,</text>
      <text x="338.6309" y="-4.585" clip-path="url(#clipPath2)" font-family="sans-serif" stroke="none" stroke-width="1" xml:space="preserve">INTC vector table, printf ringbuffer</text>
    </g>
    <g fill="rgb(255,255,204)" text-rendering="geometricPrecision" shape-rendering="geometricPrecision" transform="matrix(1,0,0,1,115,812)" stroke="rgb(255,255,204)">
      <rect x="279" width="34" height="800" y="-796.5" clip-path="url(#clipPath2)" stroke="none"/>
    </g>
    <g text-rendering="geometricPrecision" stroke-miterlimit="1.45" stroke-width="2" shape-rendering="geometricPrecision" transform="matrix(1,0,0,1,115,812)" stroke-linecap="butt">
      <rect fill="none" x="279" width="34" height="800" y="-796.5" clip-path="url(#clipPath2)"/>
    </g>
    <g text-rendering="geometricPrecision" stroke-miterlimit="1.45" shape-rendering="geometricPrecision" font-family="sans-serif" transform="matrix(-0,-1,1,-0,401.6494,566.0645)" stroke-linecap="butt">
      <text x="2" xml:space="preserve" y="14.0645" clip-path="url(#clipPath3)" stroke="none">CPU's RAM address space, 0x4000_0000 .. 0x4001_ffff</text>
    </g>
    <g fill="rgb(153,204,255)" text-rendering="geometricPrecision" shape-rendering="geometricPrecision" transform="matrix(1,0,0,1,115,812)" stroke="rgb(153,204,255)">
      <rect x="-66" width="232" height="145.0394" y="-657" clip-path="url(#clipPath2)" stroke="none"/>
    </g>
    <g text-rendering="geometricPrecision" stroke-miterlimit="1.45" stroke-width="2" shape-rendering="geometricPrecision" transform="matrix(1,0,0,1,115,812)" stroke-linecap="butt">
      <rect fill="none" x="-66" width="232" height="145.0394" y="-657" clip-path="url(#clipPath2)"/>
      <text x="-12.707" y="-587.117" clip-path="url(#clipPath2)" font-family="sans-serif" stroke="none" stroke-width="1" xml:space="preserve">0x8ff0_0000 .. 0xffff_ffff</text>
      <text x="8.9814" y="-572.4158" clip-path="url(#clipPath2)" font-family="sans-serif" stroke="none" stroke-width="1" xml:space="preserve">I/O, peripherals</text>
      <rect fill="none" x="-66" width="232" height="94.4606" y="-511.9606" clip-path="url(#clipPath2)"/>
      <text x="-11.3711" y="-460.0164" clip-path="url(#clipPath2)" font-family="sans-serif" stroke="none" stroke-width="1" xml:space="preserve">Unused address space</text>
    </g>
    <g fill="rgb(153,255,255)" text-rendering="geometricPrecision" shape-rendering="geometricPrecision" transform="matrix(1,0,0,1,115,812)" stroke="rgb(153,255,255)">
      <rect x="-66" width="232" height="42" y="-417.5" clip-path="url(#clipPath2)" stroke="none"/>
    </g>
    <g text-rendering="geometricPrecision" stroke-miterlimit="1.45" stroke-width="2" shape-rendering="geometricPrecision" transform="matrix(1,0,0,1,115,812)" stroke-linecap="butt">
      <rect fill="none" x="-66" width="232" height="42" y="-417.5" clip-path="url(#clipPath2)"/>
      <text x="-15.373" y="-399.1367" clip-path="url(#clipPath2)" font-family="sans-serif" stroke="none" stroke-width="1" xml:space="preserve">ld_ramEnd .. 0x4001_ffff</text>
      <text x="-3.3584" y="-384.4355" clip-path="url(#clipPath2)" font-family="sans-serif" stroke="none" stroke-width="1" xml:space="preserve">Unused RAM space</text>
    </g>
    <g fill="rgb(153,204,255)" text-rendering="geometricPrecision" shape-rendering="geometricPrecision" transform="matrix(1,0,0,1,115,812)" stroke="rgb(153,204,255)">
      <rect x="-66" width="232" height="64" y="-375" clip-path="url(#clipPath2)" stroke="none"/>
    </g>
    <g text-rendering="geometricPrecision" stroke-miterlimit="1.45" stroke-width="2" shape-rendering="geometricPrecision" transform="matrix(1,0,0,1,115,812)" stroke-linecap="butt">
      <rect fill="none" x="-66" width="232" height="64" y="-375" clip-path="url(#clipPath2)"/>
      <text x="-52.7266" y="-345.6367" clip-path="url(#clipPath2)" font-family="sans-serif" stroke="none" stroke-width="1" xml:space="preserve">0x4000_0000 - ld_ramEnd-1 (variable)</text>
      <text x="-34.0469" y="-330.9355" clip-path="url(#clipPath2)" font-family="sans-serif" stroke="none" stroke-width="1" xml:space="preserve">RAM space used by application</text>
    </g>
    <g fill="rgb(255,255,204)" text-rendering="geometricPrecision" shape-rendering="geometricPrecision" transform="matrix(1,0,0,1,115,812)" stroke="rgb(255,255,204)">
      <rect x="-100" width="34" height="521" y="-657" clip-path="url(#clipPath2)" stroke="none"/>
    </g>
    <g text-rendering="geometricPrecision" stroke-miterlimit="1.45" stroke-width="2" shape-rendering="geometricPrecision" transform="matrix(1,0,0,1,115,812)" stroke-linecap="butt">
      <rect fill="none" x="-100" width="34" height="521" y="-657" clip-path="url(#clipPath2)"/>
    </g>
    <g text-rendering="geometricPrecision" stroke-miterlimit="1.45" shape-rendering="geometricPrecision" font-family="sans-serif" transform="matrix(-0,-1,1,-0,22.6494,561.3945)" stroke-linecap="butt">
      <text x="2" xml:space="preserve" y="14.0645" clip-path="url(#clipPath4)" stroke="none">CPU's 32 Bit address space, 0x0000_0000 .. 0xffff_ffff</text>
    </g>
    <g text-rendering="geometricPrecision" stroke-miterlimit="1.45" stroke-width="2" shape-rendering="geometricPrecision" transform="matrix(1,0,0,1,115,812)" stroke-linecap="butt">
      <rect fill="none" x="-66" width="232" height="64" y="-311" clip-path="url(#clipPath2)"/>
      <text x="-11.3711" y="-274.2861" clip-path="url(#clipPath2)" font-family="sans-serif" stroke="none" stroke-width="1" xml:space="preserve">Unused address space</text>
    </g>
    <g fill="rgb(153,255,255)" text-rendering="geometricPrecision" shape-rendering="geometricPrecision" transform="matrix(1,0,0,1,115,812)" stroke="rgb(153,255,255)">
      <rect x="-66" width="232" height="42" y="-247" clip-path="url(#clipPath2)" stroke="none"/>
    </g>
    <g text-rendering="geometricPrecision" stroke-miterlimit="1.45" stroke-width="2" shape-rendering="geometricPrecision" transform="matrix(1,0,0,1,115,812)" stroke-linecap="butt">
      <rect fill="none" x="-66" width="232" height="42" y="-247" clip-path="url(#clipPath2)"/>
      <text x="-13.7031" y="-228.6367" clip-path="url(#clipPath2)" font-family="sans-serif" stroke="none" stroke-width="1" xml:space="preserve">ld_romEnd .. 0x000f_ffff</text>
      <text x="-18.3643" y="-213.9355" clip-path="url(#clipPath2)" font-family="sans-serif" stroke="none" stroke-width="1" xml:space="preserve">Unused flash ROM space</text>
    </g>
    <g fill="rgb(153,204,255)" text-rendering="geometricPrecision" shape-rendering="geometricPrecision" transform="matrix(1,0,0,1,115,812)" stroke="rgb(153,204,255)">
      <rect x="-66" width="232" height="69" y="-205" clip-path="url(#clipPath2)" stroke="none"/>
    </g>
    <g text-rendering="geometricPrecision" stroke-miterlimit="1.45" stroke-width="2" shape-rendering="geometricPrecision" transform="matrix(1,0,0,1,115,812)" stroke-linecap="butt">
      <rect fill="none" x="-66" width="232" height="69" y="-205" clip-path="url(#clipPath2)"/>
      <text x="-54.0625" y="-173.1367" clip-path="url(#clipPath2)" font-family="sans-serif" stroke="none" stroke-width="1" xml:space="preserve">0x0000_0000 .. ld_romEnd-1 (variable)</text>
      <text x="-51.0508" y="-158.4355" clip-path="url(#clipPath2)" font-family="sans-serif" stroke="none" stroke-width="1" xml:space="preserve">Flash ROM space used by application</text>
      <rect fill="none" x="313" width="232" height="76" y="-796.5" clip-path="url(#clipPath2)"/>
      <text x="363.627" y="-761.1367" clip-path="url(#clipPath2)" font-family="sans-serif" stroke="none" stroke-width="1" xml:space="preserve">ld_ramEnd .. 0x4001_ffff</text>
      <text x="375.6416" y="-746.4355" clip-path="url(#clipPath2)" font-family="sans-serif" stroke="none" stroke-width="1" xml:space="preserve">Unused RAM space</text>
    </g>
    <g fill="rgb(153,204,255)" text-rendering="geometricPrecision" shape-rendering="geometricPrecision" transform="matrix(1,0,0,1,115,812)" stroke="rgb(153,204,255)">
      <rect x="313" width="232" height="42" y="-93.5" clip-path="url(#clipPath2)" stroke="none"/>
    </g>
    <g text-rendering="geometricPrecision" stroke-miterlimit="1.45" stroke-width="2" shape-rendering="geometricPrecision" transform="matrix(1,0,0,1,115,812)" stroke-linecap="butt">
      <rect fill="none" x="313" width="232" height="42" y="-93.5" clip-path="url(#clipPath2)"/>
      <text x="328.2598" y="-75.1367" clip-path="url(#clipPath2)" font-family="sans-serif" stroke="none" stroke-width="1" xml:space="preserve">ld_dataOSEnd .. ld_dataSharedEnd-1</text>
      <text x="354.6182" y="-60.4355" clip-path="url(#clipPath2)" font-family="sans-serif" stroke="none" stroke-width="1" xml:space="preserve">*.data.Shared, *.bss.Shared</text>
    </g>
    <g fill="rgb(153,204,255)" text-rendering="geometricPrecision" shape-rendering="geometricPrecision" transform="matrix(1,0,0,1,115,812)" stroke="rgb(153,204,255)">
      <rect x="313" width="232" height="42" y="-219.5" clip-path="url(#clipPath2)" stroke="none"/>
    </g>
    <g text-rendering="geometricPrecision" stroke-miterlimit="1.45" stroke-width="2" shape-rendering="geometricPrecision" transform="matrix(1,0,0,1,115,812)" stroke-linecap="butt">
      <rect fill="none" x="313" width="232" height="42" y="-219.5" clip-path="url(#clipPath2)"/>
      <text x="341.5986" y="-201.1367" clip-path="url(#clipPath2)" font-family="sans-serif" stroke="none" stroke-width="1" xml:space="preserve">ld_dataP3End .. ld_dataP2End-1</text>
      <text x="352.292" y="-186.4355" clip-path="url(#clipPath2)" font-family="sans-serif" stroke="none" stroke-width="1" xml:space="preserve">*.data.P2, *.bss.P2, P2 stack</text>
    </g>
    <g fill="rgb(153,204,255)" text-rendering="geometricPrecision" shape-rendering="geometricPrecision" transform="matrix(1,0,0,1,115,812)" stroke="rgb(153,204,255)">
      <rect x="313" width="232" height="55" y="-274.5" clip-path="url(#clipPath2)" stroke="none"/>
    </g>
    <g text-rendering="geometricPrecision" stroke-miterlimit="1.45" stroke-width="2" shape-rendering="geometricPrecision" transform="matrix(1,0,0,1,115,812)" stroke-linecap="butt">
      <rect fill="none" x="313" width="232" height="55" y="-274.5" clip-path="url(#clipPath2)"/>
      <text x="341.5986" y="-256.9873" clip-path="url(#clipPath2)" font-family="sans-serif" stroke="none" stroke-width="1" xml:space="preserve">ld_dataP2End .. ld_dataP1End-1</text>
      <text x="350.625" y="-242.2861" clip-path="url(#clipPath2)" font-family="sans-serif" stroke="none" stroke-width="1" xml:space="preserve">*.data.P1, *.bss.P1, P1 stack,</text>
      <text x="326.9443" y="-227.585" clip-path="url(#clipPath2)" font-family="sans-serif" stroke="none" stroke-width="1" xml:space="preserve">heap, *.data, *.bss (legacy code, C lib)</text>
    </g>
    <g fill="rgb(153,255,255)" text-rendering="geometricPrecision" shape-rendering="geometricPrecision" transform="matrix(1,0,0,1,115,812)" stroke="rgb(153,255,255)">
      <rect x="313" width="232" height="42" y="-316.5577" clip-path="url(#clipPath2)" stroke="none"/>
    </g>
    <g text-rendering="geometricPrecision" stroke-miterlimit="1.45" stroke-width="2" shape-rendering="geometricPrecision" transform="matrix(1,0,0,1,115,812)" stroke-linecap="butt">
      <rect fill="none" x="313" width="232" height="42" y="-316.5577" clip-path="url(#clipPath2)"/>
      <text x="337.2686" y="-298.1944" clip-path="url(#clipPath2)" font-family="sans-serif" stroke="none" stroke-width="1" xml:space="preserve">ld_dataP1End .. ld_sdataOSEnd-1</text>
      <text x="369.9756" y="-283.4932" clip-path="url(#clipPath2)" font-family="sans-serif" stroke="none" stroke-width="1" xml:space="preserve">*.sdata.OS, *.sbss.OS</text>
    </g>
    <g fill="rgb(153,204,255)" text-rendering="geometricPrecision" shape-rendering="geometricPrecision" transform="matrix(1,0,0,1,115,812)" stroke="rgb(153,204,255)">
      <rect x="313" width="232" height="42" y="-358.5577" clip-path="url(#clipPath2)" stroke="none"/>
    </g>
    <g text-rendering="geometricPrecision" stroke-miterlimit="1.45" stroke-width="2" shape-rendering="geometricPrecision" transform="matrix(1,0,0,1,115,812)" stroke-linecap="butt">
      <rect fill="none" x="313" width="232" height="42" y="-358.5577" clip-path="url(#clipPath2)"/>
      <text x="334.2686" y="-340.1944" clip-path="url(#clipPath2)" font-family="sans-serif" stroke="none" stroke-width="1" xml:space="preserve">ld_sdataOSEnd .. ld_sdataP4End-1</text>
      <text x="372.6357" y="-325.4932" clip-path="url(#clipPath2)" font-family="sans-serif" stroke="none" stroke-width="1" xml:space="preserve">*.sdata.P4, *.sbss.P4</text>
    </g>
    <g fill="rgb(153,204,255)" text-rendering="geometricPrecision" shape-rendering="geometricPrecision" transform="matrix(1,0,0,1,115,812)" stroke="rgb(153,204,255)">
      <rect x="313" width="232" height="55" y="-497" clip-path="url(#clipPath2)" stroke="none"/>
    </g>
    <g text-rendering="geometricPrecision" stroke-miterlimit="1.45" stroke-width="2" shape-rendering="geometricPrecision" transform="matrix(1,0,0,1,115,812)" stroke-linecap="butt">
      <rect fill="none" x="313" width="232" height="55" y="-497" clip-path="url(#clipPath2)"/>
      <text x="335.5986" y="-479.4873" clip-path="url(#clipPath2)" font-family="sans-serif" stroke="none" stroke-width="1" xml:space="preserve">ld_sdataP2End .. ld_sdataP1End-1</text>
      <text x="370.9688" y="-464.7861" clip-path="url(#clipPath2)" font-family="sans-serif" stroke="none" stroke-width="1" xml:space="preserve">*.sdata.P1, *.sbss.P1,</text>
      <text x="337.626" y="-450.085" clip-path="url(#clipPath2)" font-family="sans-serif" stroke="none" stroke-width="1" xml:space="preserve">*.sdata, *.sbss (legacy code, C lib)</text>
    </g>
    <g fill="rgb(153,255,255)" text-rendering="geometricPrecision" shape-rendering="geometricPrecision" transform="matrix(1,0,0,1,115,812)" stroke="rgb(153,255,255)">
      <rect x="313" width="232" height="42" y="-539" clip-path="url(#clipPath2)" stroke="none"/>
    </g>
    <g text-rendering="geometricPrecision" stroke-miterlimit="1.45" stroke-width="2" shape-rendering="geometricPrecision" transform="matrix(1,0,0,1,115,812)" stroke-linecap="butt">
      <rect fill="none" x="313" width="232" height="42" y="-539" clip-path="url(#clipPath2)"/>
      <text x="330.9316" y="-520.6367" clip-path="url(#clipPath2)" font-family="sans-serif" stroke="none" stroke-width="1" xml:space="preserve">ld_sdataP1End .. ld_sdata2OSEnd-1</text>
      <text x="363.3018" y="-505.9355" clip-path="url(#clipPath2)" font-family="sans-serif" stroke="none" stroke-width="1" xml:space="preserve">*.sdata2.OS, *.sbss2.OS</text>
    </g>
    <g fill="rgb(153,204,255)" text-rendering="geometricPrecision" shape-rendering="geometricPrecision" transform="matrix(1,0,0,1,115,812)" stroke="rgb(153,204,255)">
      <rect x="313" width="232" height="42" y="-665.25" clip-path="url(#clipPath2)" stroke="none"/>
    </g>
    <g text-rendering="geometricPrecision" stroke-miterlimit="1.45" stroke-width="2" shape-rendering="geometricPrecision" transform="matrix(1,0,0,1,115,812)" stroke-linecap="butt">
      <rect fill="none" x="313" width="232" height="42" y="-665.25" clip-path="url(#clipPath2)"/>
      <text x="328.9248" y="-646.8867" clip-path="url(#clipPath2)" font-family="sans-serif" stroke="none" stroke-width="1" xml:space="preserve">ld_sdata2P3End .. ld_sdata2P2End-1</text>
      <text x="365.9619" y="-632.1855" clip-path="url(#clipPath2)" font-family="sans-serif" stroke="none" stroke-width="1" xml:space="preserve">*.sdata2.P2, *.sbss2.P2</text>
    </g>
    <g fill="rgb(153,204,255)" text-rendering="geometricPrecision" shape-rendering="geometricPrecision" transform="matrix(1,0,0,1,115,812)" stroke="rgb(153,204,255)">
      <rect x="313" width="232" height="55" y="-720.5" clip-path="url(#clipPath2)" stroke="none"/>
    </g>
    <g text-rendering="geometricPrecision" stroke-miterlimit="1.45" stroke-width="2" shape-rendering="geometricPrecision" transform="matrix(1,0,0,1,115,812)" stroke-linecap="butt">
      <rect fill="none" x="313" width="232" height="55" y="-720.5" clip-path="url(#clipPath2)"/>
      <text x="328.9248" y="-702.9873" clip-path="url(#clipPath2)" font-family="sans-serif" stroke="none" stroke-width="1" xml:space="preserve">ld_sdata2P2End .. ld_sdata2P1End-1</text>
      <text x="364.2949" y="-688.2861" clip-path="url(#clipPath2)" font-family="sans-serif" stroke="none" stroke-width="1" xml:space="preserve">*.sdata2.P1, *.sbss2.P1,</text>
      <text x="330.9521" y="-673.585" clip-path="url(#clipPath2)" font-family="sans-serif" stroke="none" stroke-width="1" xml:space="preserve">*.sdata2, *.sbss2 (legacy code, C lib)</text>
    </g>
    <g fill="rgb(153,204,255)" text-rendering="geometricPrecision" shape-rendering="geometricPrecision" transform="matrix(1,0,0,1,115,812)" stroke="rgb(153,204,255)">
      <rect x="313" width="232" height="42" y="-135.5" clip-path="url(#clipPath2)" stroke="none"/>
    </g>
    <g text-rendering="geometricPrecision" stroke-miterlimit="1.45" stroke-width="2" shape-rendering="geometricPrecision" transform="matrix(1,0,0,1,115,812)" stroke-linecap="butt">
      <rect fill="none" x="313" width="232" height="42" y="-135.5" clip-path="url(#clipPath2)"/>
      <text x="329.5898" y="-117.1367" clip-path="url(#clipPath2)" font-family="sans-serif" stroke="none" stroke-width="1" xml:space="preserve">ld_dataSharedEnd .. ld_dataP4End-1</text>
      <text x="352.292" y="-102.4355" clip-path="url(#clipPath2)" font-family="sans-serif" stroke="none" stroke-width="1" xml:space="preserve">*.data.P4, *.bss.P4, P4 stack</text>
    </g>
    <g fill="rgb(153,204,255)" text-rendering="geometricPrecision" shape-rendering="geometricPrecision" transform="matrix(1,0,0,1,115,812)" stroke="rgb(153,204,255)">
      <rect x="313" width="232" height="42" y="-177.5" clip-path="url(#clipPath2)" stroke="none"/>
    </g>
    <g text-rendering="geometricPrecision" stroke-miterlimit="1.45" stroke-width="2" shape-rendering="geometricPrecision" transform="matrix(1,0,0,1,115,812)" stroke-linecap="butt">
      <rect fill="none" x="313" width="232" height="42" y="-177.5" clip-path="url(#clipPath2)"/>
      <text x="341.5986" y="-159.1367" clip-path="url(#clipPath2)" font-family="sans-serif" stroke="none" stroke-width="1" xml:space="preserve">ld_dataP4End .. ld_dataP3End-1</text>
      <text x="352.292" y="-144.4355" clip-path="url(#clipPath2)" font-family="sans-serif" stroke="none" stroke-width="1" xml:space="preserve">*.data.P3, *.bss.P3, P3 stack</text>
    </g>
    <g fill="rgb(153,204,255)" text-rendering="geometricPrecision" shape-rendering="geometricPrecision" transform="matrix(1,0,0,1,115,812)" stroke="rgb(153,204,255)">
      <rect x="313" width="232" height="42" y="-400.5" clip-path="url(#clipPath2)" stroke="none"/>
    </g>
    <g text-rendering="geometricPrecision" stroke-miterlimit="1.45" stroke-width="2" shape-rendering="geometricPrecision" transform="matrix(1,0,0,1,115,812)" stroke-linecap="butt">
      <rect fill="none" x="313" width="232" height="42" y="-400.5" clip-path="url(#clipPath2)"/>
      <text x="335.5986" y="-382.1367" clip-path="url(#clipPath2)" font-family="sans-serif" stroke="none" stroke-width="1" xml:space="preserve">ld_sdataP4End .. ld_sdataP3End-1</text>
      <text x="372.6357" y="-367.4355" clip-path="url(#clipPath2)" font-family="sans-serif" stroke="none" stroke-width="1" xml:space="preserve">*.sdata.P3, *.sbss.P3</text>
    </g>
    <g fill="rgb(153,204,255)" text-rendering="geometricPrecision" shape-rendering="geometricPrecision" transform="matrix(1,0,0,1,115,812)" stroke="rgb(153,204,255)">
      <rect x="313" width="232" height="42" y="-442.5" clip-path="url(#clipPath2)" stroke="none"/>
    </g>
    <g text-rendering="geometricPrecision" stroke-miterlimit="1.45" stroke-width="2" shape-rendering="geometricPrecision" transform="matrix(1,0,0,1,115,812)" stroke-linecap="butt">
      <rect fill="none" x="313" width="232" height="42" y="-442.5" clip-path="url(#clipPath2)"/>
      <text x="335.5986" y="-424.1367" clip-path="url(#clipPath2)" font-family="sans-serif" stroke="none" stroke-width="1" xml:space="preserve">ld_sdataP3End .. ld_sdataP2End-1</text>
      <text x="372.6357" y="-409.4355" clip-path="url(#clipPath2)" font-family="sans-serif" stroke="none" stroke-width="1" xml:space="preserve">*.sdata.P2, *.sbss.P2</text>
    </g>
    <g fill="rgb(153,204,255)" text-rendering="geometricPrecision" shape-rendering="geometricPrecision" transform="matrix(1,0,0,1,115,812)" stroke="rgb(153,204,255)">
      <rect x="313" width="232" height="42" y="-581" clip-path="url(#clipPath2)" stroke="none"/>
    </g>
    <g text-rendering="geometricPrecision" stroke-miterlimit="1.45" stroke-width="2" shape-rendering="geometricPrecision" transform="matrix(1,0,0,1,115,812)" stroke-linecap="butt">
      <rect fill="none" x="313" width="232" height="42" y="-581" clip-path="url(#clipPath2)"/>
      <text x="327.5947" y="-562.6367" clip-path="url(#clipPath2)" font-family="sans-serif" stroke="none" stroke-width="1" xml:space="preserve">ld_sdata2OSEnd .. ld_sdata2P4End-1</text>
      <text x="365.9619" y="-547.9355" clip-path="url(#clipPath2)" font-family="sans-serif" stroke="none" stroke-width="1" xml:space="preserve">*.sdata2.P4, *.sbss2.P4</text>
    </g>
    <g fill="rgb(153,204,255)" text-rendering="geometricPrecision" shape-rendering="geometricPrecision" transform="matrix(1,0,0,1,115,812)" stroke="rgb(153,204,255)">
      <rect x="313" width="232" height="42" y="-623" clip-path="url(#clipPath2)" stroke="none"/>
    </g>
    <g text-rendering="geometricPrecision" stroke-miterlimit="1.45" stroke-width="2" shape-rendering="geometricPrecision" transform="matrix(1,0,0,1,115,812)" stroke-linecap="butt">
      <rect fill="none" x="313" width="232" height="42" y="-623" clip-path="url(#clipPath2)"/>
      <text x="328.9248" y="-604.6367" clip-path="url(#clipPath2)" font-family="sans-serif" stroke="none" stroke-width="1" xml:space="preserve">ld_sdata2P4End .. ld_sdata2P3End-1</text>
      <text x="365.9619" y="-589.9355" clip-path="url(#clipPath2)" font-family="sans-serif" stroke="none" stroke-width="1" xml:space="preserve">*.sdata2.P3, *.sbss2.P3</text>
    </g>
    <g fill="rgb(255,255,204)" text-rendering="geometricPrecision" shape-rendering="geometricPrecision" transform="matrix(1,0,0,1,115,812)" stroke="rgb(255,255,204)">
      <rect x="714.2702" width="266" height="43.7637" y="-625.2637" clip-path="url(#clipPath2)" stroke="none"/>
    </g>
    <g text-rendering="geometricPrecision" stroke-miterlimit="1.45" stroke-width="2" shape-rendering="geometricPrecision" transform="matrix(1,0,0,1,115,812)" stroke-linecap="butt">
      <rect fill="none" x="714.2702" width="266" height="43.7637" y="-625.2637" clip-path="url(#clipPath2)"/>
      <text x="833.9373" y="-598.668" clip-path="url(#clipPath2)" font-family="sans-serif" stroke="none" stroke-width="1" xml:space="preserve">MPU</text>
      <rect fill="none" x="714.2702" width="232" height="84.5" y="-581.5" clip-path="url(#clipPath2)"/>
      <text x="781.9158" y="-563.9385" clip-path="url(#clipPath2)" font-family="sans-serif" stroke="none" stroke-width="1" xml:space="preserve">Problem state: SV</text>
      <text x="795.5886" y="-549.2373" clip-path="url(#clipPath2)" font-family="sans-serif" stroke="none" stroke-width="1" xml:space="preserve">Process: any</text>
      <text x="798.2664" y="-534.5361" clip-path="url(#clipPath2)" font-family="sans-serif" stroke="none" stroke-width="1" xml:space="preserve">Access: rwx</text>
      <text x="778.5671" y="-519.835" clip-path="url(#clipPath2)" font-family="sans-serif" stroke="none" stroke-width="1" xml:space="preserve">from: 0x4000_0000</text>
      <text x="772.5613" y="-505.1338" clip-path="url(#clipPath2)" font-family="sans-serif" stroke="none" stroke-width="1" xml:space="preserve">to: ld_sdata2P1End-1</text>
    </g>
    <g fill="rgb(255,255,204)" text-rendering="geometricPrecision" shape-rendering="geometricPrecision" transform="matrix(1,0,0,1,115,812)" stroke="rgb(255,255,204)">
      <rect x="946.2702" width="34" height="84.5" y="-581.5" clip-path="url(#clipPath2)" stroke="none"/>
    </g>
    <g text-rendering="geometricPrecision" stroke-miterlimit="1.45" stroke-width="2" shape-rendering="geometricPrecision" transform="matrix(1,0,0,1,115,812)" stroke-linecap="butt">
      <rect fill="none" x="946.2702" width="34" height="84.5" y="-581.5" clip-path="url(#clipPath2)"/>
    </g>
    <g text-rendering="geometricPrecision" stroke-miterlimit="1.45" shape-rendering="geometricPrecision" font-family="sans-serif" transform="matrix(-0,-1,1,-0,1068.9196,292.0938)" stroke-linecap="butt">
      <text x="2" xml:space="preserve" y="14.0645" clip-path="url(#clipPath5)" stroke="none">Rule 0</text>
    </g>
    <g text-rendering="geometricPrecision" stroke-miterlimit="1.45" stroke-width="2" shape-rendering="geometricPrecision" transform="matrix(1,0,0,1,115,812)" stroke-linecap="butt">
      <rect fill="none" x="714.2702" width="232" height="84.5" y="-497" clip-path="url(#clipPath2)"/>
      <text x="778.2478" y="-479.4385" clip-path="url(#clipPath2)" font-family="sans-serif" stroke="none" stroke-width="1" xml:space="preserve">Problem state: user</text>
      <text x="795.5886" y="-464.7373" clip-path="url(#clipPath2)" font-family="sans-serif" stroke="none" stroke-width="1" xml:space="preserve">Process: any</text>
      <text x="805.5994" y="-450.0361" clip-path="url(#clipPath2)" font-family="sans-serif" stroke="none" stroke-width="1" xml:space="preserve">Access: r</text>
      <text x="765.2283" y="-435.335" clip-path="url(#clipPath2)" font-family="sans-serif" stroke="none" stroke-width="1" xml:space="preserve">from: ld_dataSharedEnd</text>
      <text x="772.5613" y="-420.6338" clip-path="url(#clipPath2)" font-family="sans-serif" stroke="none" stroke-width="1" xml:space="preserve">to: ld_sdata2P1End-1</text>
    </g>
    <g fill="rgb(255,255,204)" text-rendering="geometricPrecision" shape-rendering="geometricPrecision" transform="matrix(1,0,0,1,115,812)" stroke="rgb(255,255,204)">
      <rect x="946.2702" width="34" height="84.5" y="-497" clip-path="url(#clipPath2)" stroke="none"/>
    </g>
    <g text-rendering="geometricPrecision" stroke-miterlimit="1.45" stroke-width="2" shape-rendering="geometricPrecision" transform="matrix(1,0,0,1,115,812)" stroke-linecap="butt">
      <rect fill="none" x="946.2702" width="34" height="84.5" y="-497" clip-path="url(#clipPath2)"/>
    </g>
    <g text-rendering="geometricPrecision" stroke-miterlimit="1.45" shape-rendering="geometricPrecision" font-family="sans-serif" transform="matrix(-0,-1,1,-0,1068.9196,376.5938)" stroke-linecap="butt">
      <text x="2" xml:space="preserve" y="14.0645" clip-path="url(#clipPath6)" stroke="none">Rule 1</text>
    </g>
    <g text-rendering="geometricPrecision" stroke-miterlimit="1.45" stroke-width="2" shape-rendering="geometricPrecision" transform="matrix(1,0,0,1,115,812)" stroke-linecap="butt">
      <rect fill="none" x="714.2702" width="232" height="84.5" y="-412.5" clip-path="url(#clipPath2)"/>
      <text x="778.2478" y="-394.9385" clip-path="url(#clipPath2)" font-family="sans-serif" stroke="none" stroke-width="1" xml:space="preserve">Problem state: user</text>
      <text x="797.9236" y="-380.2373" clip-path="url(#clipPath2)" font-family="sans-serif" stroke="none" stroke-width="1" xml:space="preserve">Process: P1</text>
      <text x="798.2664" y="-365.5361" clip-path="url(#clipPath2)" font-family="sans-serif" stroke="none" stroke-width="1" xml:space="preserve">Access: rwx</text>
      <text x="770.9001" y="-350.835" clip-path="url(#clipPath2)" font-family="sans-serif" stroke="none" stroke-width="1" xml:space="preserve">from: ld_sdata2P2End</text>
      <text x="772.5613" y="-336.1338" clip-path="url(#clipPath2)" font-family="sans-serif" stroke="none" stroke-width="1" xml:space="preserve">to: ld_sdata2P1End-1</text>
    </g>
    <g fill="rgb(255,255,204)" text-rendering="geometricPrecision" shape-rendering="geometricPrecision" transform="matrix(1,0,0,1,115,812)" stroke="rgb(255,255,204)">
      <rect x="946.2702" width="34" height="84.5" y="-412.5" clip-path="url(#clipPath2)" stroke="none"/>
    </g>
    <g text-rendering="geometricPrecision" stroke-miterlimit="1.45" stroke-width="2" shape-rendering="geometricPrecision" transform="matrix(1,0,0,1,115,812)" stroke-linecap="butt">
      <rect fill="none" x="946.2702" width="34" height="84.5" y="-412.5" clip-path="url(#clipPath2)"/>
    </g>
    <g text-rendering="geometricPrecision" stroke-miterlimit="1.45" shape-rendering="geometricPrecision" font-family="sans-serif" transform="matrix(-0,-1,1,-0,1068.9196,461.0938)" stroke-linecap="butt">
      <text x="2" xml:space="preserve" y="14.0645" clip-path="url(#clipPath7)" stroke="none">Rule 2</text>
    </g>
    <g text-rendering="geometricPrecision" stroke-miterlimit="1.45" stroke-width="2" shape-rendering="geometricPrecision" transform="matrix(1,0,0,1,115,812)" stroke-linecap="butt">
      <rect fill="none" x="714.2702" width="232" height="84.5" y="-328" clip-path="url(#clipPath2)"/>
      <text x="825.2693" y="-281.0361" clip-path="url(#clipPath2)" font-family="sans-serif" stroke="none" stroke-width="1" xml:space="preserve">...</text>
    </g>
    <g fill="rgb(255,255,204)" text-rendering="geometricPrecision" shape-rendering="geometricPrecision" transform="matrix(1,0,0,1,115,812)" stroke="rgb(255,255,204)">
      <rect x="946.2702" width="34" height="84.5" y="-328" clip-path="url(#clipPath2)" stroke="none"/>
    </g>
    <g text-rendering="geometricPrecision" stroke-miterlimit="1.45" stroke-width="2" shape-rendering="geometricPrecision" transform="matrix(1,0,0,1,115,812)" stroke-linecap="butt">
      <rect fill="none" x="946.2702" width="34" height="84.5" y="-328" clip-path="url(#clipPath2)"/>
    </g>
    <g text-rendering="geometricPrecision" stroke-miterlimit="1.45" shape-rendering="geometricPrecision" font-family="sans-serif" transform="matrix(-0,-1,1,-0,1068.9196,547.2578)" stroke-linecap="butt">
      <text x="2" xml:space="preserve" y="14.0645" clip-path="url(#clipPath8)" stroke="none">Rule ...</text>
    </g>
    <g text-rendering="geometricPrecision" stroke-miterlimit="1.45" stroke-width="2" shape-rendering="geometricPrecision" transform="matrix(1,0,0,1,115,812)" stroke-linecap="butt">
      <rect fill="none" x="714.2702" width="232" height="84.5" y="-243.5" clip-path="url(#clipPath2)"/>
      <text x="778.2478" y="-225.9385" clip-path="url(#clipPath2)" font-family="sans-serif" stroke="none" stroke-width="1" xml:space="preserve">Problem state: user</text>
      <text x="795.5886" y="-211.2373" clip-path="url(#clipPath2)" font-family="sans-serif" stroke="none" stroke-width="1" xml:space="preserve">Process: any</text>
      <text x="801.2664" y="-196.5361" clip-path="url(#clipPath2)" font-family="sans-serif" stroke="none" stroke-width="1" xml:space="preserve">Access: rw</text>
      <text x="775.907" y="-181.835" clip-path="url(#clipPath2)" font-family="sans-serif" stroke="none" stroke-width="1" xml:space="preserve">from: ld_dataOSEnd</text>
      <text x="766.8894" y="-167.1338" clip-path="url(#clipPath2)" font-family="sans-serif" stroke="none" stroke-width="1" xml:space="preserve">to: ld_dataSharedEnd-1</text>
    </g>
    <g fill="rgb(255,255,204)" text-rendering="geometricPrecision" shape-rendering="geometricPrecision" transform="matrix(1,0,0,1,115,812)" stroke="rgb(255,255,204)">
      <rect x="946.2702" width="34" height="84.5" y="-243.5" clip-path="url(#clipPath2)" stroke="none"/>
    </g>
    <g text-rendering="geometricPrecision" stroke-miterlimit="1.45" stroke-width="2" shape-rendering="geometricPrecision" transform="matrix(1,0,0,1,115,812)" stroke-linecap="butt">
      <rect fill="none" x="946.2702" width="34" height="84.5" y="-243.5" clip-path="url(#clipPath2)"/>
    </g>
    <g text-rendering="geometricPrecision" stroke-miterlimit="1.45" shape-rendering="geometricPrecision" font-family="sans-serif" transform="matrix(-0,-1,1,-0,1068.9196,631.0898)" stroke-linecap="butt">
      <text x="2" xml:space="preserve" y="14.0645" clip-path="url(#clipPath9)" stroke="none">Rule N</text>
    </g>
    <g text-rendering="geometricPrecision" stroke-miterlimit="1.45" shape-rendering="geometricPrecision" transform="matrix(1,0,0,1,115,812)" stroke-linecap="butt">
      <path fill="none" d="M166 -417.5 L278.9862 -796.4537" clip-path="url(#clipPath2)"/>
    </g>
    <g stroke-linecap="round" transform="matrix(1,0,0,1,115,812)" stroke-dashoffset="2" text-rendering="geometricPrecision" shape-rendering="geometricPrecision" stroke-dasharray="0,8" stroke-width="2" stroke-miterlimit="1.45">
      <path fill="none" d="M166 -375 L278.9862 -720.4578" clip-path="url(#clipPath2)"/>
    </g>
    <g text-rendering="geometricPrecision" stroke-miterlimit="1.45" shape-rendering="geometricPrecision" transform="matrix(1,0,0,1,115,812)" stroke-linecap="butt">
      <path fill="none" d="M166 -311 L279 3.5" clip-path="url(#clipPath2)"/>
      <path fill="none" d="M714.2496 -539.2723 L545.0197 -721.7085" clip-path="url(#clipPath2)"/>
      <path fill="none" d="M714.2599 -539.217 L546.0417 1.6219 L545 1.3939" clip-path="url(#clipPath2)"/>
      <path fill="none" d="M714.2498 -454.7825 L546.3711 -720.7764" clip-path="url(#clipPath2)" stroke="red"/>
      <path fill="none" d="M714.2496 -454.7059 L545 -93.5" clip-path="url(#clipPath2)" stroke="red"/>
      <path fill="none" d="M714.2496 -370.2926 L545.0297 -718.9974" clip-path="url(#clipPath2)" stroke="lime"/>
      <path fill="none" d="M714.2496 -370.2864 L545.0143 -668.3193" clip-path="url(#clipPath2)" stroke="lime"/>
      <path fill="none" d="M714.2289 -201.2237 L545 -93.5" clip-path="url(#clipPath2)" stroke="fuchsia"/>
      <path fill="none" d="M714.2496 -201.2317 L545 -51.5404" clip-path="url(#clipPath2)" stroke="fuchsia"/>
    </g>
  </g>
</svg>
