<?xml version="1.0" encoding="UTF-8"?><svg xmlns="http://www.w3.org/2000/svg" xmlns:xlink="http://www.w3.org/1999/xlink" fill-opacity="1" color-rendering="auto" color-interpolation="auto" text-rendering="auto" stroke="black" stroke-linecap="square" width="296" stroke-miterlimit="10" shape-rendering="auto" stroke-opacity="1" fill="black" stroke-dasharray="none" font-weight="normal" stroke-width="1" height="551" font-family="'Dialog'" font-style="normal" stroke-linejoin="miter" font-size="12px" stroke-dashoffset="0" image-rendering="auto">
  <!--Generated by ySVG 2.5-->
  <defs id="genericDefs"/>
  <g>
    <defs id="defs1">
      <clipPath clipPathUnits="userSpaceOnUse" id="clipPath1">
        <path d="M0 0 L296 0 L296 551 L0 551 L0 0 Z"/>
      </clipPath>
      <clipPath clipPathUnits="userSpaceOnUse" id="clipPath2">
        <path d="M-47 -672 L249 -672 L249 -121 L-47 -121 L-47 -672 Z"/>
      </clipPath>
      <clipPath clipPathUnits="userSpaceOnUse" id="clipPath3">
        <path d="M421.3945 -22.6494 L421.3945 273.3506 L-129.6055 273.3506 L-129.6055 -22.6494 L421.3945 -22.6494 Z"/>
      </clipPath>
    </defs>
    <g fill="white" text-rendering="geometricPrecision" shape-rendering="geometricPrecision" transform="translate(47,672)" stroke="white">
      <rect x="-47" width="296" height="551" y="-672" clip-path="url(#clipPath2)" stroke="none"/>
    </g>
    <g fill="rgb(153,204,255)" text-rendering="geometricPrecision" shape-rendering="geometricPrecision" transform="matrix(1,0,0,1,47,672)" stroke="rgb(153,204,255)">
      <rect x="2" width="232" height="42" y="-657" clip-path="url(#clipPath2)" stroke="none"/>
    </g>
    <g text-rendering="geometricPrecision" stroke-miterlimit="1.45" stroke-width="2" shape-rendering="geometricPrecision" transform="matrix(1,0,0,1,47,672)" stroke-linecap="butt">
      <rect fill="none" x="2" width="232" height="42" y="-657" clip-path="url(#clipPath2)"/>
      <text x="53.623" y="-638.6367" clip-path="url(#clipPath2)" font-family="sans-serif" stroke="none" stroke-width="1" xml:space="preserve">0xf000_0000 .. 0xffff_ffff</text>
      <text x="76.9814" y="-623.9355" clip-path="url(#clipPath2)" font-family="sans-serif" stroke="none" stroke-width="1" xml:space="preserve">I/O, peripherals</text>
      <rect fill="none" x="2" width="232" height="158" y="-615" clip-path="url(#clipPath2)"/>
      <text x="56.6289" y="-531.2861" clip-path="url(#clipPath2)" font-family="sans-serif" stroke="none" stroke-width="1" xml:space="preserve">Unused address space</text>
    </g>
    <g fill="rgb(153,255,255)" text-rendering="geometricPrecision" shape-rendering="geometricPrecision" transform="matrix(1,0,0,1,47,672)" stroke="rgb(153,255,255)">
      <rect x="2" width="232" height="42" y="-457" clip-path="url(#clipPath2)" stroke="none"/>
    </g>
    <g text-rendering="geometricPrecision" stroke-miterlimit="1.45" stroke-width="2" shape-rendering="geometricPrecision" transform="matrix(1,0,0,1,47,672)" stroke-linecap="butt">
      <rect fill="none" x="2" width="232" height="42" y="-457" clip-path="url(#clipPath2)"/>
      <text x="52.627" y="-438.6367" clip-path="url(#clipPath2)" font-family="sans-serif" stroke="none" stroke-width="1" xml:space="preserve">ld_ramEnd .. 0x4001_ffff</text>
      <text x="64.6416" y="-423.9355" clip-path="url(#clipPath2)" font-family="sans-serif" stroke="none" stroke-width="1" xml:space="preserve">Unused RAM space</text>
    </g>
    <g fill="rgb(153,204,255)" text-rendering="geometricPrecision" shape-rendering="geometricPrecision" transform="matrix(1,0,0,1,47,672)" stroke="rgb(153,204,255)">
      <rect x="2" width="232" height="64" y="-415" clip-path="url(#clipPath2)" stroke="none"/>
    </g>
    <g text-rendering="geometricPrecision" stroke-miterlimit="1.45" stroke-width="2" shape-rendering="geometricPrecision" transform="matrix(1,0,0,1,47,672)" stroke-linecap="butt">
      <rect fill="none" x="2" width="232" height="64" y="-415" clip-path="url(#clipPath2)"/>
      <text x="20.6084" y="-385.6367" clip-path="url(#clipPath2)" font-family="sans-serif" stroke="none" stroke-width="1" xml:space="preserve">0x4000_0000 - ld_ramEnd (variable)</text>
      <text x="33.9531" y="-370.9355" clip-path="url(#clipPath2)" font-family="sans-serif" stroke="none" stroke-width="1" xml:space="preserve">RAM space used by application</text>
    </g>
    <g fill="rgb(255,255,204)" text-rendering="geometricPrecision" shape-rendering="geometricPrecision" transform="matrix(1,0,0,1,47,672)" stroke="rgb(255,255,204)">
      <rect x="-32" width="34" height="521" y="-657" clip-path="url(#clipPath2)" stroke="none"/>
    </g>
    <g text-rendering="geometricPrecision" stroke-miterlimit="1.45" stroke-width="2" shape-rendering="geometricPrecision" transform="matrix(1,0,0,1,47,672)" stroke-linecap="butt">
      <rect fill="none" x="-32" width="34" height="521" y="-657" clip-path="url(#clipPath2)"/>
    </g>
    <g text-rendering="geometricPrecision" stroke-miterlimit="1.45" shape-rendering="geometricPrecision" font-family="sans-serif" transform="matrix(-0,-1,1,-0,22.6494,421.3945)" stroke-linecap="butt">
      <text x="2" xml:space="preserve" y="14.0645" clip-path="url(#clipPath3)" stroke="none">CPU's 32 Bit address space, 0x0000_0000 .. 0xffff_ffff</text>
    </g>
    <g text-rendering="geometricPrecision" stroke-miterlimit="1.45" stroke-width="2" shape-rendering="geometricPrecision" transform="matrix(1,0,0,1,47,672)" stroke-linecap="butt">
      <rect fill="none" x="2" width="232" height="104" y="-351" clip-path="url(#clipPath2)"/>
      <text x="56.6289" y="-294.2861" clip-path="url(#clipPath2)" font-family="sans-serif" stroke="none" stroke-width="1" xml:space="preserve">Unused address space</text>
    </g>
    <g fill="rgb(153,255,255)" text-rendering="geometricPrecision" shape-rendering="geometricPrecision" transform="matrix(1,0,0,1,47,672)" stroke="rgb(153,255,255)">
      <rect x="2" width="232" height="42" y="-247" clip-path="url(#clipPath2)" stroke="none"/>
    </g>
    <g text-rendering="geometricPrecision" stroke-miterlimit="1.45" stroke-width="2" shape-rendering="geometricPrecision" transform="matrix(1,0,0,1,47,672)" stroke-linecap="butt">
      <rect fill="none" x="2" width="232" height="42" y="-247" clip-path="url(#clipPath2)"/>
      <text x="54.2969" y="-228.6367" clip-path="url(#clipPath2)" font-family="sans-serif" stroke="none" stroke-width="1" xml:space="preserve">ld_romEnd .. 0x000f_ffff</text>
      <text x="49.6357" y="-213.9355" clip-path="url(#clipPath2)" font-family="sans-serif" stroke="none" stroke-width="1" xml:space="preserve">Unused flash ROM space</text>
    </g>
    <g fill="rgb(153,204,255)" text-rendering="geometricPrecision" shape-rendering="geometricPrecision" transform="matrix(1,0,0,1,47,672)" stroke="rgb(153,204,255)">
      <rect x="2" width="232" height="69" y="-205" clip-path="url(#clipPath2)" stroke="none"/>
    </g>
    <g text-rendering="geometricPrecision" stroke-miterlimit="1.45" stroke-width="2" shape-rendering="geometricPrecision" transform="matrix(1,0,0,1,47,672)" stroke-linecap="butt">
      <rect fill="none" x="2" width="232" height="69" y="-205" clip-path="url(#clipPath2)"/>
      <text x="19.2725" y="-173.1367" clip-path="url(#clipPath2)" font-family="sans-serif" stroke="none" stroke-width="1" xml:space="preserve">0x0000_0000 .. ld_romEnd (variable)</text>
      <text x="16.9492" y="-158.4355" clip-path="url(#clipPath2)" font-family="sans-serif" stroke="none" stroke-width="1" xml:space="preserve">Flash ROM space used by application</text>
    </g>
  </g>
</svg>
